<svg xmlns="http://www.w3.org/2000/svg" width="648.226" height="49.6"><defs><clipPath><path d="M0 612h792v-612h-792v612z"/></clipPath></defs><g transform="matrix(1.25 0 0 -1.25 -129.266 517.423)"><path d="M151.358 413.938h-47.945v-39.68l47.945.001v39.679z" fill="#0088ac"/><path d="M128.083 410.429l-.002-32.644h3.522l.001 32.644h-3.521z" fill="#fff"/><path d="M106.937 410.429v-32.644h3.524l.002 29.12h3.522l-.001-29.12 3.526.001.002 29.119h3.523v-29.12h3.524v32.644h-17.622z" fill="#fff"/><path d="M138.658 396.158v10.747l5.637.005v-10.752h-5.637zm-3.524 14.271v-32.644h3.523v14.824h5.638v-14.824l3.541-.001.002 32.645h-12.704z" fill="#fff"/><path d="M169.497 395.471v-17.687h-4.059v32.654h3.206l5.173-17.185h.594l5.255 17.185h3.08v-32.654h-4.059v17.815l-3.974-14.747h-1.368l-3.848 14.619z" fill="#fff"/><path d="M192.743 377.784h-4.19v32.654h4.19v-32.654z" fill="#fff"/><path d="M202.874 395.049v-17.265h-3.89v32.654h2.176l7.566-17.869v17.869h3.89v-32.654h-2.267l-7.475 17.265z" fill="#fff"/><path d="M222.317 395.049v-17.265h-3.893v32.654h2.179l7.563-17.869v17.869h3.89v-32.654h-2.264l-7.475 17.265z" fill="#fff"/><path d="M248.508 377.784h-10.64v32.654h10.517v-3.555h-6.328v-10.597h5.941v-3.592h-5.941v-11.367h6.451v-3.543z" fill="#fff"/><path d="M259.573 400.304h-.299l-2.265-12.569h4.707l-2.143 12.569zm3.724-22.52l-.983 6.329h-5.899l-1.026-6.329h-4.144l6.067 32.654h4.314l5.986-32.654h-4.315z" fill="#fff"/><path d="M275.818 393.895h5.043v12.989h-5.043v-12.989zm0-16.111h-4.189v32.654h10.342c2.05 0 3.078-1.122 3.078-2.742v-14.576c0-1.701-1.071-2.774-2.862-2.774h-6.369v-12.562z" fill="#fff"/><path d="M299.961 406.883h-5.979v-25.556h5.979v25.556zm4.188-26.447c0-1.713-1.491-2.652-2.562-2.652h-9.233c-1.064 0-2.562.939-2.562 2.652v27.34c0 1.711 1.498 2.662 2.562 2.662h9.233c1.071 0 2.562-.951 2.562-2.662v-27.34z" fill="#fff"/><path d="M321.288 377.784h-11.454v32.654h4.183v-29.111h7.271v-3.543z" fill="#fff"/><path d="M329.018 377.784h-4.188v32.654h4.188v-32.654z" fill="#fff"/><path d="M338.546 388.979v-7.652h3.593v7.396l-6.967 9.957c-.47.727-.811 1.369-.811 2.132v6.964c0 1.37 1.069 2.662 2.561 2.662h6.927c1.624 0 2.564-1.161 2.564-2.742v-6.669h-4.185v5.856h-3.591v-5.732l6.661-9.398c.597-.941 1.115-1.794 1.115-2.735v-8.496c0-1.499-.986-2.738-2.564-2.738h-6.927c-1.321 0-2.561.979-2.561 2.699v8.496h4.185z" fill="#fff"/><path d="M367.909 377.784h-4.189v32.654h4.189v-32.654z" fill="#fff"/><path d="M378.039 395.049v-17.265h-3.895v32.654h2.177l7.566-17.869v17.869h3.889v-32.654h-2.265l-7.472 17.265z" fill="#fff"/><path d="M396.875 388.979v-7.652h3.594v7.396l-6.967 9.957c-.468.727-.811 1.369-.811 2.132v6.964c0 1.37 1.07 2.662 2.561 2.662h6.922c1.627 0 2.564-1.161 2.564-2.742v-6.669h-4.179v5.856h-3.599v-5.732l6.675-9.398c.594-.941 1.103-1.794 1.103-2.735v-8.496c0-1.499-.976-2.738-2.564-2.738h-6.922c-1.313 0-2.561.979-2.561 2.699v8.496h4.184z" fill="#fff"/><path d="M416.193 377.784h-4.195v29.099h-4.519v3.555h13.24v-3.555h-4.526v-29.099z" fill="#fff"/><path d="M428.676 377.784h-4.195v32.654h4.195v-32.654z" fill="#fff"/><path d="M441.537 377.784h-4.193v29.099h-4.53v3.555h13.25v-3.555h-4.527v-29.099z" fill="#fff"/><path d="M453.883 410.438v-29.111h5.51v29.111h4.193v-29.955c0-1.588-1.029-2.699-2.566-2.699h-8.766c-1.492 0-2.559.979-2.559 2.699v29.955h4.188z" fill="#fff"/><path d="M475.887 377.784h-4.182v29.099h-4.535v3.555h13.25v-3.555h-4.533v-29.099z" fill="#fff"/><path d="M494.822 377.784h-10.642v32.654h10.504v-3.555h-6.317v-10.597h5.938v-3.592h-5.938v-11.367h6.455v-3.543z" fill="#fff"/><path d="M521.873 406.883h-5.982v-25.556h5.982v25.556zm4.184-26.447c0-1.713-1.493-2.652-2.557-2.652h-9.24c-1.063 0-2.563.939-2.563 2.652v27.34c0 1.711 1.5 2.662 2.563 2.662h9.24c1.064 0 2.557-.951 2.557-2.662v-27.34z" fill="#fff"/><path d="M531.742 377.784v32.654h10.514v-3.555h-6.326v-10.642h5.943v-3.628h-5.943v-14.829h-4.188z" fill="#fff"/><path d="M565.537 400.304h-.299l-2.267-12.569h4.707l-2.141 12.569zm3.721-22.52l-.981 6.329h-5.892l-1.033-6.329h-4.143l6.068 32.654h4.315l5.982-32.654h-4.316z" fill="#fff"/><path d="M581.777 377.784h-4.183v32.654h10.814c2.006 0 2.862-1.248 2.862-2.742v-12.014c0-1.87-1.28-2.766-2.825-2.766h-.509l4.064-15.132h-4.705l-4.316 17.346.73 1.324h3.371v10.429h-5.303v-29.099z" fill="#fff"/><path d="M602.547 377.784h-4.186v29.099h-4.529v3.555h13.238v-3.555h-4.523v-29.099z" fill="#fff"/><path d="M614.131 388.979v-7.652h3.588v7.396l-6.961 9.957c-.477.727-.82 1.369-.82 2.132v6.964c0 1.37 1.074 2.662 2.572 2.662h6.918c1.621 0 2.566-1.161 2.566-2.742v-6.669h-4.191v5.856h-3.586v-5.732l6.664-9.398c.596-.941 1.113-1.794 1.113-2.735v-8.496c0-1.499-.982-2.738-2.566-2.738h-6.918c-1.322 0-2.572.979-2.572 2.699v8.496h4.193z" fill="#fff"/></g></svg>