<svg xmlns="http://www.w3.org/2000/svg" viewBox="0 0 504 46" enable-background="new 0 0 504 46">
    <style type="text/css">
        .st0{fill:#FFFFFF;}
        svg{background:rgb(35,35,35);}
    </style>
    <path class="st0" d="M18.9 36.1c-1-3.3-4.4-14.9-5.7-19.5h-.1v19.5h-6.9v-28.2h10.8s4.8 17.1 5.4 19.7c.6-2.6 5.3-19.7 5.3-19.7h10.7v28.2h-7v-19.5h-.1c-1.3 4.5-4.7 16.2-5.7 19.5h-6.7zm22.5-21.4v-6.8h7.1v6.8h-7.1zm7.2 21.4h-7.1v-19.2h7.1v19.2zm10.1-19.2v3c.6-1.5 2.5-3.6 6.1-3.6 3.7 0 6.7 2.3 6.7 6.8v13.1h-7.1v-10.9c0-2.5-1-3.3-2.5-3.3-1.4 0-2.9 1.1-2.9 4.4v9.6h-7.1v-19.1h6.8zm22.7 0v3c.6-1.5 2.5-3.6 6.1-3.6 3.7 0 6.7 2.3 6.7 6.8v13.1h-7.2v-10.9c0-2.5-1-3.3-2.5-3.3-1.4 0-2.9 1.1-2.9 4.4v9.6h-7.1v-19.1h6.9zm34.2 15.3c-1.6 2.8-4.9 4.5-9.1 4.5-6.1 0-10.4-3.6-10.4-10.2 0-6.7 4.4-10.3 10.2-10.3 6.7 0 9.9 4.7 9.9 10.6v1.5h-13c0 1.4.6 3.2 3.1 3.2 1.5 0 2.5-.7 3-1.6l6.3 2.3zm-12.4-7.7h6c-.1-2.1-1-3.4-2.9-3.4-2 0-2.9 1.3-3.1 3.4zm26.5 9.2c-1.1 2-3 3-5.9 3-4 0-6.1-2.3-6.1-5.6 0-4.4 3.3-5.9 7.1-6.5l4.7-.7v-.9c0-1.1-.5-1.9-2.1-1.9-1.4 0-2.1.9-2.2 1.7h-6.8c.3-3.8 4-6.5 8.9-6.5 5 0 9.1 1.9 9.1 7.6v12.3h-6.6l-.1-2.5zm-.2-4.5v-1.4l-3.2.5c-1.5.2-1.9 1-1.9 1.9 0 1.2 1 1.6 2.1 1.6 1.5 0 3-.8 3-2.6zm16.7 4.6v10.3h-7.1v-27.2h6.9v2.8c.7-1.4 2.5-3.4 6.1-3.4 4.6 0 8.4 3.9 8.4 10.2 0 6.3-3.8 10.2-8.4 10.2-2.6 0-4.9-1.1-5.9-2.9zm3.6-12.1c-2.1 0-3.7 1.7-3.7 4.6v.4c0 2.9 1.5 4.6 3.7 4.6s3.5-2 3.5-4.8-1.3-4.8-3.5-4.8zm12.5 4.8c0-6.6 4.3-10.2 10.4-10.2s10.4 3.7 10.4 10.2c0 6.6-4.3 10.2-10.4 10.2s-10.4-3.6-10.4-10.2zm13.6 0c0-2.9-.9-5.1-3.3-5.1s-3.3 2.2-3.3 5.1c0 2.9.9 5.1 3.3 5.1s3.3-2.2 3.3-5.1zm9.5-18.6h7.1v28.2h-7.1v-28.2zm10.1 6.8v-6.8h7.1v6.8h-7.1zm7.1 21.4h-7.1v-19.2h7.1v19.2zm12.7-12.2c4 .6 8 1.8 8 6.2 0 4.3-3.9 6.6-9.2 6.6-4.5 0-8.7-1.6-9.4-5.2l6.7-1.1c.2 1.2 1.4 1.6 2.7 1.6 1.2 0 2.1-.4 2.1-1.2 0-.8-.6-1.2-2.7-1.6-3.3-.5-8.1-1.4-8.1-6.3 0-4.7 4.5-6.5 8.9-6.5s8.1 1.8 8.9 4.9l-6.6 1.3c-.2-1-1.3-1.5-2.3-1.5-1 0-1.9.4-1.9 1.2 0 1 1.1 1.3 2.9 1.6zm18.3-16h7.4v28.2h-7.4v-28.2zm17.4 9v3c.6-1.5 2.5-3.6 6.1-3.6 3.7 0 6.7 2.3 6.7 6.8v13.1h-7.1v-10.9c0-2.5-1-3.3-2.5-3.3-1.4 0-2.9 1.1-2.9 4.4v9.6h-7.1v-19.1h6.8zm24.8 7c4 .6 8 1.8 8 6.2 0 4.3-3.9 6.6-9.2 6.6-4.5 0-8.7-1.6-9.4-5.2l6.7-1.1c.2 1.2 1.4 1.6 2.7 1.6 1.2 0 2.1-.4 2.1-1.2 0-.8-.6-1.2-2.7-1.6-3.3-.5-8.1-1.4-8.1-6.3 0-4.7 4.5-6.5 8.9-6.5s8.1 1.8 8.9 4.9l-6.6 1.3c-.2-1-1.3-1.5-2.3-1.5-1 0-1.9.4-1.9 1.2.1 1 1.1 1.3 2.9 1.6zm23.6 12.4c-1 .2-2.4.4-3.8.4-4.3 0-7.3-1.9-7.3-7.2v-7.5h-3.1v-5.1h3.1v-5.5l7-3.2v8.7h4v5.1h-4v7.1c0 1.6.9 1.9 2.1 1.9.8 0 1.4 0 1.9-.1v5.4zm3-21.6v-6.8h7.1v6.8h-7.1zm7.1 21.4h-7.1v-19.2h7.1v19.2zm16.4.2c-1 .2-2.4.4-3.8.4-4.3 0-7.3-1.9-7.3-7.2v-7.5h-3.1v-5.1h3.1v-5.5l7-3.2v8.7h4v5.1h-4v7.1c0 1.6.9 1.9 2.1 1.9.8 0 1.4 0 1.9-.1v5.4zm15.2-.2v-2.9c-.6 1.5-2.5 3.5-6 3.5-3.7 0-6.5-2.3-6.5-6.8v-13h7.1v10.8c0 2.5.9 3.3 2.3 3.3s2.8-1.1 2.8-4.4v-9.6h7.1v19.2h-6.8zm23.3.2c-1 .2-2.4.4-3.8.4-4.3 0-7.3-1.9-7.3-7.2v-7.5h-3.1v-5.1h3.1v-5.5l7-3.2v8.7h4v5.1h-4v7.1c0 1.6.9 1.9 2.1 1.9.8 0 1.4 0 1.9-.1v5.4zm21.1-4.1c-1.6 2.8-4.9 4.5-9.1 4.5-6.1 0-10.4-3.6-10.4-10.2 0-6.7 4.4-10.3 10.2-10.3 6.7 0 9.9 4.7 9.9 10.6v1.5h-13c0 1.4.6 3.2 3.1 3.2 1.5 0 2.5-.7 3-1.6l6.3 2.3zm-12.3-7.7h6c-.1-2.1-1-3.4-2.9-3.4-2 0-3 1.3-3.1 3.4zm22.3 2c0-6.6 4.3-10.2 10.4-10.2 6 0 10.4 3.7 10.4 10.2 0 6.6-4.3 10.2-10.4 10.2-6 0-10.4-3.6-10.4-10.2zm13.6 0c0-2.9-.9-5.1-3.3-5.1s-3.3 2.2-3.3 5.1c0 2.9.9 5.1 3.3 5.1 2.5 0 3.3-2.2 3.3-5.1zm18.7-19.2c1.4 0 2.6.2 3.7.5v5.4c-.6-.2-1.2-.4-2.1-.4-1.3 0-2.3.8-2.3 2.3v1.6h4v5.3h-4v14.1h-7.1v-14.1h-3v-5.1h3.1v-1.7c-.1-5.1 3.2-7.9 7.7-7.9zm39.8 28.8h-7.6l-2.1-6h-9.4l-2.1 6h-7.3l10.1-28.2h8.2l10.2 28.2zm-14.4-21c-.5 2.1-2.8 9.4-2.8 9.4h5.7c0 .1-2.4-7.3-2.9-9.4zm29.5 1.6v6.3c-.5-.2-1.3-.2-1.8-.2-2.2 0-5 1.1-5 5.8v7.6h-7.1v-19.3h6.7v3.3c1.1-2.6 3.1-3.7 5.9-3.7.4 0 1 .1 1.3.2zm15.9 19.6c-1 .2-2.4.4-3.8.4-4.3 0-7.3-1.9-7.3-7.2v-7.5h-3.1v-5.1h3.1v-5.5l7-3.2v8.7h4v5.1h-4v7.1c0 1.6.9 1.9 2.1 1.9.8 0 1.4 0 1.9-.1v5.4z"/>
</svg>
