<svg xmlns="http://www.w3.org/2000/svg" width="212.673" height="214.245"><defs><clipPath><path d="M0 792h612v-792h-612v792z"/></clipPath></defs><g transform="matrix(1.25 0 0 -1.25 -179.09 790.081)"><path d="M145.867 622.501v-11.309h-2.595v20.872h2.049l3.307-10.982h.382l3.361 10.982h1.967v-20.872h-2.596v11.393l-2.54-9.426h-.875l-2.46 9.342z" fill="#666769"/><path d="M161.974 611.192h-2.677v20.873h2.677v-20.873z" fill="#666769"/><path d="M169.104 622.229v-11.037h-2.486v20.872h1.393l4.837-11.419v11.419h2.485v-20.872h-1.447l-4.782 11.037z" fill="#666769"/><path d="M182.778 622.229v-11.037h-2.486v20.872h1.394l4.835-11.419v11.419h2.487v-20.872h-1.448l-4.782 11.037z" fill="#666769"/><path d="M200.182 611.192h-6.804v20.872h6.722v-2.268h-4.044v-6.774h3.798v-2.294h-3.798v-7.269h4.126v-2.267z" fill="#666769"/><path d="M207.914 625.589h-.191l-1.45-8.031h3.006l-1.365 8.031zm2.376-14.397l-.627 4.043h-3.772l-.655-4.043h-2.65l3.879 20.872h2.761l3.823-20.872h-2.759z" fill="#666769"/><path d="M218.952 621.492h3.224v8.305h-3.224v-8.305zm0-10.3h-2.679v20.872h6.612c1.312 0 1.968-.71 1.968-1.748v-9.316c0-1.093-.683-1.776-1.832-1.776h-4.069v-8.032z" fill="#666769"/><path d="M234.455 629.796h-3.824v-16.337h3.824v16.337zm2.677-16.911c0-1.091-.955-1.693-1.64-1.693h-5.9c-.684 0-1.64.602-1.64 1.693v17.486c0 1.094.956 1.693 1.64 1.693h5.9c.685 0 1.64-.599 1.64-1.693v-17.486z" fill="#666769"/><path d="M248.743 611.192h-7.323v20.872h2.68v-18.605h4.643v-2.267z" fill="#666769"/><path d="M254.344 611.192h-2.678v20.873h2.678v-20.873z" fill="#666769"/><path d="M261.016 618.35v-4.891h2.297v4.727l-4.456 6.365c-.299.465-.519.875-.519 1.366v4.454c0 .874.683 1.693 1.64 1.693h4.426c1.038 0 1.638-.737 1.638-1.748v-4.262h-2.676v3.742h-2.295v-3.66l4.262-6.011c.384-.601.709-1.147.709-1.748v-5.437c0-.956-.627-1.748-1.638-1.748h-4.426c-.847 0-1.64.627-1.64 1.721v5.437h2.678z" fill="#666769"/><path d="M292.535 575.916h20.875v-2.678h-20.875v2.678z" fill="#666769"/><path d="M303.574 566.107h-11.039v2.486h20.874v-1.393l-11.42-4.835h11.42v-2.488h-20.874v1.45l11.039 4.78z" fill="#666769"/><path d="M299.694 553.404h-4.891v-2.295h4.728l6.365 4.453c.464.3.874.519 1.367.519h4.453c.874 0 1.693-.683 1.693-1.639v-4.427c0-1.038-.735-1.639-1.748-1.639h-4.262v2.678h3.743v2.295h-3.662l-6.01-4.264c-.602-.38-1.147-.709-1.748-.709h-5.438c-.956 0-1.749.627-1.749 1.639v4.427c0 .847.63 1.639 1.723 1.639h5.436v-2.677z" fill="#666769"/><path d="M292.535 540.399v2.678h18.607v2.896h2.267v-8.47h-2.267v2.896h-18.607z" fill="#666769"/><path d="M292.535 534.443h20.875v-2.678h-20.875v2.678z" fill="#666769"/><path d="M292.535 522.887v2.677h18.607v2.897h2.267v-8.47h-2.267v2.896h-18.607z" fill="#666769"/><path d="M313.409 514.335h-18.606v-3.522h18.606v-2.679h-19.151c-1.012 0-1.723.656-1.723 1.639v5.602c0 .956.63 1.637 1.723 1.637h19.151v-2.677z" fill="#666769"/><path d="M292.535 499.61v2.678h18.607v2.897h2.267v-8.47h-2.267v2.895h-18.607z" fill="#666769"/><path d="M292.535 486.853v6.801h20.874v-6.72h-2.267v4.044h-6.776v-3.797h-2.294v3.797h-7.269v-4.125h-2.268z" fill="#666769"/><path d="M149.775 479.274h-3.825v-16.338h3.825v16.338zm2.678-16.912c0-1.093-.956-1.693-1.64-1.693h-5.902c-.682 0-1.639.6-1.639 1.693v17.486c0 1.093.957 1.694 1.639 1.694h5.902c.684 0 1.64-.601 1.64-1.694v-17.486z" fill="#666769"/><path d="M156.742 460.669v20.873h6.72v-2.268h-4.043v-6.802h3.797v-2.323h-3.797v-9.48h-2.677z" fill="#666769"/><path d="M178.188 475.066h-.19l-1.45-8.032h3.006l-1.366 8.032zm2.377-14.397l-.627 4.044h-3.772l-.655-4.044h-2.65l3.879 20.873h2.76l3.824-20.873h-2.759z" fill="#666769"/><path d="M189.226 460.669h-2.679v20.873h6.914c1.284 0 1.83-.792 1.83-1.749v-7.676c0-1.204-.82-1.776-1.803-1.776h-.329l2.596-9.672h-3.005l-2.76 11.094.464.846h2.159v6.665h-3.387v-18.605z" fill="#666769"/><path d="M203.159 460.669h-2.678v18.605h-2.896v2.268h8.471v-2.268h-2.897v-18.605z" fill="#666769"/><path d="M211.218 467.827v-4.89h2.296v4.727l-4.454 6.366c-.301.462-.519.872-.519 1.365v4.453c0 .875.682 1.694 1.639 1.694h4.426c1.039 0 1.639-.738 1.639-1.749v-4.261h-2.677v3.742h-2.296v-3.66l4.263-6.011c.382-.6.71-1.148.71-1.749v-5.437c0-.955-.628-1.748-1.639-1.748h-4.426c-.847 0-1.639.627-1.639 1.721v5.437h2.677z" fill="#666769"/><path d="M287.272 605.938h-144v-119.082h144v119.082z" fill="#0088ac"/><path d="M217.364 595.398l-.006-98.044 10.581.001.002 98.043h-10.577z" fill="#fff"/><path d="M153.856 595.398v-98.046l10.584.002.006 87.458h10.579l-.003-87.457 10.589.002.006 87.455h10.579v-87.46l10.583.002v98.044h-52.923z" fill="#fff"/><path d="M249.124 552.537v32.274l16.931.015v-32.286l-16.931-.003zm-10.583 42.86v-98.045h10.581v44.529l16.933.001v-44.53l10.635-.001.008 98.046h-38.157z" fill="#fff"/></g></svg>