<svg xmlns="http://www.w3.org/2000/svg" width="552.251" height="214.928"><defs><clipPath><path d="M0 792h612v-792h-612v792z"/></clipPath></defs><g transform="matrix(1.25 0 0 -1.25 -93.7 801.128)"><path d="M367.813 640.902h-144v-119.177l144 .006v119.171z" fill="#373535"/><path d="M297.904 630.363l-.006-98.044 10.581.001.002 98.043h-10.577z" fill="#fff"/><path d="M234.396 630.363v-98.046l10.584.002.006 87.458h10.579l-.003-87.457 10.589.002.006 87.455h10.579v-87.46l10.583.002v98.044h-52.923z" fill="#fff"/><path d="M329.664 587.502v32.274l16.931.015v-32.287l-16.931-.002zm-10.583 42.86v-98.045h10.581v44.529l16.933.001v-44.53l10.635-.001.008 98.046h-38.157z" fill="#fff"/><path d="M78.888 486.076v-17.116h-3.928v31.599h3.103l5.005-16.629h.576l5.084 16.629h2.98v-31.599h-3.927v17.239l-3.845-14.27h-1.324l-3.724 14.147z" fill="#373535"/><path d="M101.382 468.96h-4.054v31.599h4.054v-31.599z" fill="#373535"/><path d="M111.187 485.667v-16.707h-3.765v31.599h2.106l7.321-17.292v17.292h3.765v-31.599h-2.194l-7.233 16.707z" fill="#373535"/><path d="M130 485.667v-16.707h-3.766v31.599h2.108l7.318-17.292v17.292h3.765v-31.599h-2.19l-7.235 16.707z" fill="#373535"/><path d="M155.345 468.96h-10.295v31.599h10.177v-3.44h-6.124v-10.255h5.749v-3.476h-5.749v-10.999h6.242v-3.429z" fill="#373535"/><path d="M166.053 490.752h-.289l-2.192-12.162h4.554l-2.073 12.162zm3.603-21.792l-.95 6.124h-5.709l-.994-6.124h-4.009l5.87 31.599h4.176l5.792-31.599h-4.176z" fill="#373535"/><path d="M181.773 484.55h4.88v12.569h-4.88v-12.569zm0-15.59h-4.054v31.599h10.008c1.984 0 2.979-1.085 2.979-2.654v-14.104c0-1.647-1.036-2.685-2.769-2.685h-6.164v-12.156z" fill="#373535"/><path d="M205.135 497.119h-5.786v-24.73h5.786v24.73zm4.053-25.593c0-1.657-1.443-2.566-2.479-2.566h-8.935c-1.029 0-2.479.909-2.479 2.566v26.457c0 1.656 1.45 2.576 2.479 2.576h8.935c1.036 0 2.479-.92 2.479-2.576v-26.457z" fill="#373535"/><path d="M225.773 468.96h-11.084v31.599h4.048v-28.17h7.036v-3.429z" fill="#373535"/><path d="M233.253 468.96h-4.053v31.599h4.053v-31.599z" fill="#373535"/><path d="M242.473 479.794v-7.405h3.478v7.157l-6.743 9.635c-.455.703-.785 1.325-.785 2.063v6.739c0 1.326 1.035 2.576 2.479 2.576h6.703c1.571 0 2.48-1.123 2.48-2.654v-6.453h-4.049v5.667h-3.474v-5.547l6.446-9.093c.577-.913 1.077-1.737 1.077-2.648v-8.221c0-1.45-.952-2.65-2.48-2.65h-6.703c-1.279 0-2.479.947-2.479 2.612v8.222h4.05z" fill="#373535"/><path d="M270.888 468.96h-4.055v31.599h4.055v-31.599z" fill="#373535"/><path d="M280.69 485.667v-16.707h-3.77v31.599h2.107l7.321-17.292v17.292h3.764v-31.599h-2.192l-7.23 16.707z" fill="#373535"/><path d="M298.918 479.794v-7.405h3.477v7.157l-6.742 9.635c-.453.703-.784 1.325-.784 2.063v6.739c0 1.326 1.035 2.576 2.478 2.576h6.696c1.576 0 2.484-1.123 2.484-2.654v-6.453h-4.045v5.667h-3.483v-5.547l6.459-9.093c.574-.913 1.069-1.737 1.069-2.648v-8.221c0-1.45-.945-2.65-2.484-2.65h-6.696c-1.271 0-2.478.947-2.478 2.612v8.222h4.049z" fill="#373535"/><path d="M317.61 468.96h-4.058v28.159h-4.375v3.44h12.814v-3.44h-4.381v-28.159z" fill="#373535"/><path d="M329.688 468.96h-4.059v31.599h4.059v-31.599z" fill="#373535"/><path d="M342.136 468.96h-4.059v28.159h-4.383v3.44h12.823v-3.44h-4.381v-28.159z" fill="#373535"/><path d="M354.083 500.559v-28.17h5.332v28.17h4.057v-28.987c0-1.538-.996-2.612-2.483-2.612h-8.482c-1.445 0-2.477.947-2.477 2.612v28.987h4.053z" fill="#373535"/><path d="M375.374 468.96h-4.045v28.159h-4.389v3.44h12.823v-3.44h-4.389v-28.159z" fill="#373535"/><path d="M393.698 468.96h-10.297v31.599h10.164v-3.44h-6.113v-10.255h5.746v-3.476h-5.746v-10.999h6.246v-3.429z" fill="#373535"/><path d="M419.874 497.119h-5.789v-24.73h5.789v24.73zm4.051-25.593c0-1.657-1.446-2.566-2.477-2.566h-8.939c-1.03 0-2.481.909-2.481 2.566v26.457c0 1.656 1.451 2.576 2.481 2.576h8.939c1.031 0 2.477-.92 2.477-2.576v-26.457z" fill="#373535"/><path d="M429.427 468.96v31.599h10.172v-3.44h-6.121v-10.299h5.75v-3.509h-5.75v-14.351h-4.051z" fill="#373535"/><path d="M462.128 490.752h-.289l-2.193-12.162h4.552l-2.07 12.162zm3.6-21.792l-.95 6.124h-5.701l-1-6.124h-4.008l5.871 31.599h4.176l5.789-31.599h-4.177z" fill="#373535"/><path d="M477.843 468.96h-4.049v31.599h10.465c1.943 0 2.769-1.207 2.769-2.654v-11.626c0-1.809-1.238-2.675-2.732-2.675h-.494l3.933-14.644h-4.552l-4.176 16.785.705 1.281h3.264v10.093h-5.133v-28.159z" fill="#373535"/><path d="M497.942 468.96h-4.05v28.159h-4.383v3.44h12.81v-3.44h-4.377v-28.159z" fill="#373535"/><path d="M509.151 479.794v-7.405h3.471v7.157l-6.734 9.635c-.461.703-.793 1.325-.793 2.063v6.739c0 1.326 1.039 2.576 2.488 2.576h6.695c1.569 0 2.483-1.123 2.483-2.654v-6.453h-4.057v5.667h-3.471v-5.547l6.452-9.093c.576-.913 1.076-1.737 1.076-2.648v-8.221c0-1.45-.951-2.65-2.483-2.65h-6.695c-1.281 0-2.488.947-2.488 2.612v8.222h4.056z" fill="#373535"/></g></svg>