<svg xmlns="http://www.w3.org/2000/svg" width="256.837" height="251.07"><defs><clipPath><path d="M0 792h612v-792h-612v792z"/></clipPath></defs><g transform="matrix(1.25 0 0 -1.25 -241.134 801.128)"><path d="M367.813 640.902h-144v-119.177l144 .006v119.171z" fill="#96989b"/><path d="M297.904 630.363l-.006-98.044 10.581.001.002 98.043h-10.577z" fill="#fff"/><path d="M234.396 630.363v-98.046l10.584.002.006 87.458h10.579l-.003-87.457 10.589.002.006 87.455h10.579v-87.46l10.583.002v98.044h-52.923z" fill="#fff"/><path d="M329.664 587.502v32.274l16.931.015v-32.287l-16.931-.002zm-10.583 42.86v-98.045h10.581v44.529l16.933.001v-44.53l10.635-.001.008 98.046h-38.157z" fill="#fff"/><path d="M226.99 488.652v-14.071h-3.228v25.978h2.55l4.115-13.671h.473l4.18 13.671h2.451v-25.978h-3.23v14.173l-3.16-11.733h-1.089l-3.062 11.631z" fill="#373535"/><path d="M245.483 474.581h-3.332v25.978h3.332v-25.978z" fill="#373535"/><path d="M253.543 488.318v-13.737h-3.094v25.978h1.731l6.019-14.216v14.216h3.095v-25.978h-1.804l-5.947 13.737z" fill="#373535"/><path d="M269.011 488.318v-13.737h-3.095v25.978h1.732l6.017-14.216v14.216h3.095v-25.978h-1.801l-5.948 13.737z" fill="#373535"/><path d="M289.848 474.581h-8.464v25.978h8.366v-2.828h-5.034v-8.43h4.726v-2.859h-4.726v-9.041h5.132v-2.82z" fill="#373535"/><path d="M298.651 492.497h-.237l-1.803-9.998h3.744l-1.704 9.998zm2.962-17.916l-.782 5.035h-4.693l-.817-5.035h-3.296l4.827 25.978h3.432l4.762-25.978h-3.433z" fill="#373535"/><path d="M311.576 487.398h4.011v10.333h-4.011v-10.333zm0-12.817h-3.334v25.978h8.227c1.633 0 2.45-.892 2.45-2.181v-11.595c0-1.355-.853-2.208-2.276-2.208h-5.067v-9.994z" fill="#373535"/><path d="M330.782 497.731h-4.758v-20.33h4.758v20.33zm3.332-21.04c0-1.363-1.186-2.11-2.039-2.11h-7.345c-.846 0-2.038.747-2.038 2.11v21.752c0 1.359 1.192 2.116 2.038 2.116h7.345c.853 0 2.039-.757 2.039-2.116v-21.752z" fill="#373535"/><path d="M347.747 474.581h-9.112v25.978h3.328v-23.158h5.784v-2.82z" fill="#373535"/><path d="M353.897 474.581h-3.332v25.978h3.332v-25.978z" fill="#373535"/><path d="M361.479 483.488v-6.087h2.858v5.884l-5.543 7.921c-.376.577-.646 1.089-.646 1.695v5.542c0 1.089.851 2.116 2.038 2.116h5.51c1.292 0 2.039-.923 2.039-2.181v-5.305h-3.33v4.658h-2.854v-4.56l5.297-7.476c.477-.75.887-1.427.887-2.176v-6.76c0-1.191-.784-2.178-2.039-2.178h-5.51c-1.052 0-2.038.778-2.038 2.147v6.76h3.331z" fill="#373535"/><path d="M196.24 440.046h-3.333v25.978h3.333v-25.978z" fill="#373535"/><path d="M204.298 453.781v-13.735h-3.099v25.978h1.732l6.019-14.216v14.216h3.094v-25.978h-1.801l-5.945 13.735z" fill="#373535"/><path d="M219.284 448.953v-6.087h2.858v5.884l-5.542 7.919c-.372.579-.645 1.09-.645 1.698v5.539c0 1.092.851 2.118 2.037 2.118h5.505c1.296 0 2.042-.923 2.042-2.18v-5.305h-3.325v4.658h-2.864v-4.56l5.311-7.476c.472-.751.878-1.43.878-2.177v-6.757c0-1.195-.776-2.181-2.042-2.181h-5.505c-1.045 0-2.037.779-2.037 2.147v6.76h3.329z" fill="#373535"/><path d="M234.651 440.046h-3.337v23.151h-3.596v2.827h10.535v-2.827h-3.602v-23.151z" fill="#373535"/><path d="M244.581 440.046h-3.336v25.978h3.336v-25.978z" fill="#373535"/><path d="M254.814 440.046h-3.336v23.151h-3.603v2.827h10.542v-2.827h-3.603v-23.151z" fill="#373535"/><path d="M264.637 466.024v-23.158h4.384v23.158h3.333v-23.831c0-1.263-.818-2.147-2.04-2.147h-6.974c-1.187 0-2.035.779-2.035 2.147v23.831h3.332z" fill="#373535"/><path d="M282.14 440.046h-3.325v23.151h-3.607v2.827h10.541v-2.827h-3.609v-23.151z" fill="#373535"/><path d="M297.205 440.046h-8.465v25.978h8.356v-2.827h-5.026v-8.43h4.723v-2.859h-4.723v-9.042h5.135v-2.82z" fill="#373535"/><path d="M318.726 463.197h-4.76v-20.331h4.76v20.331zm3.33-21.041c0-1.363-1.19-2.11-2.036-2.11h-7.351c-.847 0-2.037.747-2.037 2.11v21.75c0 1.362 1.19 2.118 2.037 2.118h7.351c.846 0 2.036-.756 2.036-2.118v-21.75z" fill="#373535"/><path d="M326.578 440.046v25.978h8.363v-2.827h-5.033v-8.468h4.729v-2.886h-4.729v-11.797h-3.33z" fill="#373535"/><path d="M353.463 457.962h-.238l-1.803-9.998h3.742l-1.701 9.998zm2.959-17.916l-.78 5.034h-4.688l-.823-5.034h-3.295l4.828 25.978h3.434l4.757-25.978h-3.433z" fill="#373535"/><path d="M366.383 440.046h-3.33v25.978h8.603c1.598 0 2.279-.993 2.279-2.18v-9.558c0-1.488-1.02-2.202-2.247-2.202h-.407l3.234-12.038h-3.743l-3.433 13.8.579 1.054h2.685v8.297h-4.22v-23.151z" fill="#373535"/><path d="M382.905 440.046h-3.33v23.151h-3.601v2.827h10.53v-2.827h-3.599v-23.151z" fill="#373535"/><path d="M392.122 448.953v-6.087h2.853v5.884l-5.537 7.919c-.378.579-.652 1.09-.652 1.698v5.539c0 1.092.855 2.118 2.047 2.118h5.503c1.29 0 2.041-.923 2.041-2.18v-5.305h-3.336v4.658h-2.853v-4.56l5.305-7.476c.473-.751.884-1.43.884-2.177v-6.757c0-1.195-.782-2.181-2.041-2.181h-5.503c-1.054 0-2.047.779-2.047 2.147v6.76h3.336z" fill="#373535"/></g></svg>